CD_DA

CATALOG "0724349692503"

// Track 1
TRACK AUDIO
NO COPY
NO PRE_EMPHASIS
TWO_CHANNEL_AUDIO
ISRC "GBCHB9810011"
FILE "data.wav" 0 03:24:27


// Track 2
TRACK AUDIO
NO COPY
NO PRE_EMPHASIS
TWO_CHANNEL_AUDIO
ISRC "GBCHB9810012"
FILE "data.wav" 03:24:27 03:38:23


// Track 3
TRACK AUDIO
NO COPY
NO PRE_EMPHASIS
TWO_CHANNEL_AUDIO
ISRC "GBCHB9810013"
FILE "data.wav" 07:02:50 06:56:02


// Track 4
TRACK AUDIO
NO COPY
NO PRE_EMPHASIS
TWO_CHANNEL_AUDIO
ISRC "GBCHB9810014"
FILE "data.wav" 13:58:52 05:35:58
START 00:00:35


// Track 5
TRACK AUDIO
NO COPY
NO PRE_EMPHASIS
TWO_CHANNEL_AUDIO
ISRC "GBCHB9810015"
FILE "data.wav" 19:34:35 04:40:42


// Track 6
TRACK AUDIO
NO COPY
NO PRE_EMPHASIS
TWO_CHANNEL_AUDIO
ISRC "GBCHB9810016"
FILE "data.wav" 24:15:02 05:50:38


// Track 7
TRACK AUDIO
NO COPY
NO PRE_EMPHASIS
TWO_CHANNEL_AUDIO
ISRC "GBCHB9810017"
FILE "data.wav" 30:05:40 04:54:37
START 00:00:32


// Track 8
TRACK AUDIO
NO COPY
NO PRE_EMPHASIS
TWO_CHANNEL_AUDIO
ISRC "GBCHB9810018"
FILE "data.wav" 35:00:02 03:37:30


// Track 9
TRACK AUDIO
NO COPY
NO PRE_EMPHASIS
TWO_CHANNEL_AUDIO
ISRC "GBCHB9810019"
FILE "data.wav" 38:37:32 03:54:35


// Track 10
TRACK AUDIO
NO COPY
NO PRE_EMPHASIS
TWO_CHANNEL_AUDIO
ISRC "GBCHB9810020"
FILE "data.wav" 42:31:67 03:08:45
START 00:00:05


// Track 11
TRACK AUDIO
NO COPY
NO PRE_EMPHASIS
TWO_CHANNEL_AUDIO
ISRC "GBCHB9810021"
FILE "data.wav" 45:40:37 05:39:73
START 00:00:20


// Track 12
TRACK AUDIO
NO COPY
NO PRE_EMPHASIS
TWO_CHANNEL_AUDIO
ISRC "GBCHB9810022"
FILE "data.wav" 51:20:35 07:16:62

